<svg width="11" height="16" fill="none" xmlns="http://www.w3.org/2000/svg"><path d="M11 6.865v4.434s0 1.51-.919 2.383a.547.547 0 0 0-.159.398v.86c0 .309-.241.559-.539.56h-4.31a.552.552 0 0 1-.54-.56v-.104c.001-.449-.173-.88-.481-1.193-.52-.527-1.323-1.437-1.674-2.344C1.84 9.899.762 7.937.223 7.377c-.539-.56 0-1.12.539-1.12s1.616 1.12 2.155 1.96c.172.271.372.52.598.743.135.13.323.18.5.131a.546.546 0 0 0 .376-.366c.103-.346.15-.706.143-1.068V1.215a.83.83 0 0 1 .808-.84c.446 0 .808.376.808.84v3.361a.83.83 0 0 1 .809-.84c.446 0 .808.376.808.84v.84c0-.222.085-.436.237-.593a.76.76 0 0 1 .302-.196.721.721 0 0 1 .27-.05c.445 0 .807.376.807.84v1.4c0-.223.086-.436.237-.594a.761.761 0 0 1 .302-.196.754.754 0 0 1 .329-.047c.433.048.758.432.749.885Z" fill="#F98AAB"/></svg>