<svg width="6" height="10" fill="none" xmlns="http://www.w3.org/2000/svg"><path d="M5.599.398A1.178 1.178 0 0 0 4.703 0H2.172c-.352 0-.65.133-.897.398a1.369 1.369 0 0 0-.369.966V4.09c0 .379.123.7.37.966.245.265.544.397.896.397h1.476a.59.59 0 0 1 .448.2.685.685 0 0 1 .185.482v.228c0 .501-.165.93-.495 1.285a1.57 1.57 0 0 1-1.192.533h-.422a.392.392 0 0 0-.297.135.454.454 0 0 0-.125.32v.908c0 .123.042.23.125.32.083.09.182.135.297.135h.422c.456 0 .893-.096 1.308-.288a3.397 3.397 0 0 0 1.077-.778c.304-.326.544-.713.722-1.16a3.78 3.78 0 0 0 .267-1.41v-5c0-.38-.123-.701-.369-.966Z" fill="#F6762C"/></svg>